<svg width="40" height="43" viewBox="0 0 40 43" fill="none" xmlns="http://www.w3.org/2000/svg">
<g opacity="0.82">
<path d="M12.2013 35.2565V31.6772H17.427V35.2565H12.2013ZM7.08295 42.5582C5.67511 42.5582 4.51782 42.2838 3.61108 41.7349C2.70434 41.21 1.98849 40.5419 1.46353 39.7306C0.962438 38.9431 0.604514 38.1318 0.389759 37.2967C0.175004 36.4854 0.067627 35.8053 0.067627 35.2565C0.067627 34.2066 0.282382 33.2044 0.711891 32.2499C1.16526 31.2955 1.73794 30.4484 2.42993 29.7087C3.12192 28.9451 3.83777 28.3247 4.57748 27.8475C4.6252 28.3008 4.60134 28.7303 4.50589 29.136C4.41044 29.5416 4.19569 29.9711 3.86163 30.4245C4.1241 30.5438 4.33886 30.7228 4.50589 30.9614C4.69678 31.1762 4.82802 31.4148 4.89961 31.6772C4.97119 31.9397 4.97119 32.2141 4.89961 32.5005C4.56555 32.3096 4.26727 32.1783 4.0048 32.1068C3.76618 32.0113 3.47984 31.9874 3.14578 32.0352C2.47765 32.1068 1.97656 32.4885 1.64249 33.1805C1.30843 33.8725 1.1414 34.5645 1.1414 35.2565C1.1414 36.0678 1.33229 36.8433 1.71408 37.583C2.11973 38.3466 2.74013 38.9551 3.57529 39.4084C4.43431 39.8857 5.54387 40.1243 6.90399 40.1243C8.12093 40.1243 9.08733 39.8379 9.80317 39.2653C10.5429 38.6926 11.0559 37.9648 11.3422 37.0819C11.6525 36.2229 11.7718 35.3758 11.7002 34.5406C11.6525 33.8487 11.4854 33.1805 11.1991 32.5363C10.9127 31.892 10.5906 31.3193 10.2327 30.8182C9.89862 30.2933 9.61228 29.8876 9.37366 29.6013L11.2349 25.8789C12.1416 26.9765 12.9529 28.265 13.6688 29.7445C14.3846 31.2 14.7425 32.9777 14.7425 35.0775C14.7425 36.4138 14.4323 37.6546 13.8119 38.8C13.1915 39.9453 12.3086 40.8521 11.1633 41.5202C10.0418 42.2122 8.68168 42.5582 7.08295 42.5582Z" fill="#65853C"/>
<path d="M7.37202 26.0802C6.79935 26.0802 6.31018 25.8774 5.90453 25.4718C5.49889 25.0661 5.29606 24.5769 5.29606 24.0043C5.29606 23.4316 5.49889 22.9424 5.90453 22.5368C6.31018 22.1311 6.79935 21.9283 7.37202 21.9283C7.9447 21.9283 8.43387 22.1311 8.83951 22.5368C9.24516 22.9424 9.44798 23.4316 9.44798 24.0043C9.44798 24.5769 9.24516 25.0661 8.83951 25.4718C8.43387 25.8774 7.9447 26.0802 7.37202 26.0802Z" fill="#65853C"/>
<path d="M16.0037 35.2565V31.6772H23.1621L25.4887 35.2565H16.0037ZM25.4529 35.2565C24.4745 35.2565 23.5797 35.0179 22.7684 34.5406C21.9571 34.0634 21.3009 33.4191 20.7998 32.6078C20.3226 31.7727 20.084 30.8659 20.084 29.8876C20.084 28.8854 20.3226 27.9787 20.7998 27.1674C21.3009 26.3561 21.9571 25.7118 22.7684 25.2346C23.5797 24.7574 24.4745 24.5188 25.4529 24.5188C26.4312 24.5188 27.326 24.7574 28.1373 25.2346C28.9486 25.7118 29.5929 26.3561 30.0701 27.1674C30.5473 27.9787 30.7859 28.8854 30.7859 29.8876C30.7859 30.8659 30.5473 31.7727 30.0701 32.6078C29.5929 33.4191 28.9486 34.0634 28.1373 34.5406C27.326 35.0179 26.4312 35.2565 25.4529 35.2565ZM25.4529 31.6772C25.954 31.6772 26.3715 31.5102 26.7056 31.1762C27.0635 30.8182 27.2425 30.3887 27.2425 29.8876C27.2425 29.3865 27.0635 28.969 26.7056 28.6349C26.3715 28.277 25.954 28.098 25.4529 28.098C24.9518 28.098 24.5223 28.277 24.1643 28.6349C23.8303 28.969 23.6632 29.3865 23.6632 29.8876C23.6632 30.3887 23.8303 30.8182 24.1643 31.1762C24.5223 31.5102 24.9518 31.6772 25.4529 31.6772Z" fill="#65853C"/>
<path d="M17.3455 19.0067L19.1352 15.4274H26.1863V19.0067H17.3455ZM12.5494 23.7313C13.9095 24.0892 15.019 24.2443 15.8781 24.1966C16.7609 24.1489 17.441 23.958 17.9182 23.6239C18.3955 23.2899 18.7176 22.8723 18.8846 22.3712C19.0755 21.8701 19.171 21.369 19.171 20.8679V14.4253L22.7502 13.6378V20.51C22.7502 21.7746 22.4758 22.8007 21.927 23.5881C21.402 24.3994 20.71 24.984 19.851 25.342C18.992 25.7237 18.0853 25.9027 17.1308 25.8788C16.2002 25.855 15.3173 25.6522 14.4821 25.2704C13.6709 24.9124 13.0266 24.3994 12.5494 23.7313ZM22.7502 13.6378L17.4171 8.26896C17.7273 8.26896 18.133 8.26896 18.6341 8.26896C19.1352 8.26896 19.6482 8.23317 20.1731 8.16158C20.722 8.06614 21.2231 7.8991 21.6764 7.66049C22.1537 7.42187 22.5116 7.07588 22.7502 6.62251V13.6378ZM17.4171 19.0067C16.4388 19.0067 15.544 18.7681 14.7327 18.2908C13.9214 17.8136 13.2652 17.1693 12.7641 16.3581C12.2869 15.5229 12.0483 14.6162 12.0483 13.6378C12.0483 12.6356 12.2869 11.7289 12.7641 10.9176C13.2652 10.1063 13.9214 9.46204 14.7327 8.98481C15.544 8.50758 16.4388 8.26896 17.4171 8.26896C18.3955 8.26896 19.2903 8.50758 20.1016 8.98481C20.9129 9.46204 21.5571 10.1063 22.0344 10.9176C22.5116 11.7289 22.7502 12.6356 22.7502 13.6378C22.7502 14.6162 22.5116 15.5229 22.0344 16.3581C21.5571 17.1693 20.9129 17.8136 20.1016 18.2908C19.2903 18.7681 18.3955 19.0067 17.4171 19.0067ZM17.4171 15.4274C17.9182 15.4274 18.3358 15.2604 18.6699 14.9264C19.0278 14.5684 19.2068 14.1389 19.2068 13.6378C19.2068 13.1367 19.0278 12.7192 18.6699 12.3851C18.3358 12.0272 17.9182 11.8482 17.4171 11.8482C16.916 11.8482 16.4865 12.0272 16.1286 12.3851C15.7945 12.7192 15.6275 13.1367 15.6275 13.6378C15.6275 14.1389 15.7945 14.5684 16.1286 14.9264C16.4865 15.2604 16.916 15.4274 17.4171 15.4274Z" fill="#65853C"/>
<path d="M11.8335 6.30037V5.11922C11.8335 4.66585 11.8454 4.30793 11.8693 4.04545C11.8932 3.75911 11.9528 3.43698 12.0483 3.07905C12.2392 2.3632 12.5613 1.7786 13.0147 1.32522C13.468 0.847991 14.16 0.609375 15.0906 0.609375C15.4247 0.609375 15.8184 0.716752 16.2718 0.931507C16.749 1.1224 17.1069 1.49226 17.3455 2.04107C17.2024 1.96949 16.8922 1.87404 16.4149 1.75473C15.9377 1.63543 15.5321 1.62349 15.198 1.71894C14.8162 1.81439 14.5418 1.99335 14.3748 2.25583C14.2077 2.49444 14.1123 2.73306 14.0884 2.97168C14.0646 3.18643 14.0526 3.34153 14.0526 3.43698C14.0526 3.91421 14.1719 4.24827 14.4106 4.43917C14.673 4.63006 14.9713 4.74937 15.3054 4.79709C15.6633 4.82095 15.9854 4.83288 16.2718 4.83288H17.2024L17.2382 6.30037H11.8335ZM9.22066 6.62251L10.2944 4.83288H18.8846L17.8108 6.62251H9.22066Z" fill="#65853C"/>
<path d="M24.7686 19.0067V15.4274H31.9271L34.2536 19.0067H24.7686ZM34.2178 19.0067C33.2394 19.0067 32.3446 18.7681 31.5333 18.2908C30.722 17.8136 30.0658 17.1693 29.5648 16.3581C29.0875 15.5229 28.8489 14.6162 28.8489 13.6378C28.8489 12.6356 29.0875 11.7289 29.5648 10.9176C30.0658 10.1063 30.722 9.46204 31.5333 8.98481C32.3446 8.50758 33.2394 8.26896 34.2178 8.26896C35.1961 8.26896 36.0909 8.50758 36.9022 8.98481C37.7135 9.46204 38.3578 10.1063 38.835 10.9176C39.3122 11.7289 39.5508 12.6356 39.5508 13.6378C39.5508 14.6162 39.3122 15.5229 38.835 16.3581C38.3578 17.1693 37.7135 17.8136 36.9022 18.2908C36.0909 18.7681 35.1961 19.0067 34.2178 19.0067ZM34.2178 15.4274C34.7189 15.4274 35.1364 15.2604 35.4705 14.9264C35.8284 14.5684 36.0074 14.1389 36.0074 13.6378C36.0074 13.1367 35.8284 12.7192 35.4705 12.3851C35.1364 12.0272 34.7189 11.8482 34.2178 11.8482C33.7167 11.8482 33.2872 12.0272 32.9292 12.3851C32.5952 12.7192 32.4282 13.1367 32.4282 13.6378C32.4282 14.1389 32.5952 14.5684 32.9292 14.9264C33.2872 15.2604 33.7167 15.4274 34.2178 15.4274Z" fill="#65853C"/>
</g>
</svg>
