<svg width="204" height="216" viewBox="0 0 204 216" fill="none" xmlns="http://www.w3.org/2000/svg">
<g style="mix-blend-mode:screen" opacity="0.82">
<path d="M62.8966 178.183V159.787H89.7552V178.183H62.8966ZM36.5899 215.711C29.3541 215.711 23.4059 214.301 18.7455 211.48C14.0851 208.782 10.4059 205.348 7.70776 201.178C5.13228 197.131 3.29265 192.961 2.18887 188.669C1.08509 184.499 0.533203 181.004 0.533203 178.183C0.533203 172.787 1.63698 167.636 3.84454 162.73C6.17473 157.824 9.11814 153.47 12.6748 149.669C16.2314 145.744 19.9106 142.555 23.7125 140.102C23.9578 142.433 23.8352 144.64 23.3446 146.725C22.854 148.81 21.7503 151.018 20.0333 153.348C21.3823 153.961 22.4861 154.881 23.3446 156.107C24.3257 157.211 25.0003 158.437 25.3682 159.787C25.7361 161.136 25.7361 162.546 25.3682 164.018C23.6512 163.037 22.1182 162.362 20.7691 161.994C19.5427 161.504 18.071 161.381 16.354 161.626C12.92 161.994 10.3446 163.956 8.62757 167.513C6.91059 171.07 6.05209 174.626 6.05209 178.183C6.05209 182.353 7.03323 186.339 8.9955 190.14C11.0804 194.065 14.2691 197.192 18.5616 199.523C22.9767 201.975 28.6795 203.202 35.6701 203.202C41.9249 203.202 46.8919 201.73 50.5711 198.787C54.373 195.843 57.0098 192.103 58.4815 187.565C60.0759 183.15 60.6891 178.796 60.3212 174.504C60.0759 170.947 59.2174 167.513 57.7457 164.202C56.274 160.89 54.6183 157.947 52.7787 155.371C51.0617 152.673 49.59 150.588 48.3636 149.117L57.9296 129.985C62.59 135.626 66.7599 142.249 70.4391 149.853C74.1184 157.334 75.958 166.471 75.958 177.263C75.958 184.131 74.3637 190.508 71.175 196.395C67.9863 202.282 63.4485 206.942 57.5617 210.376C51.7975 213.933 44.807 215.711 36.5899 215.711Z" fill="#A5DBA6"/>
<path d="M38.0757 131.019C35.1323 131.019 32.6181 129.977 30.5332 127.892C28.4483 125.807 27.4059 123.293 27.4059 120.35C27.4059 117.406 28.4483 114.892 30.5332 112.807C32.6181 110.722 35.1323 109.68 38.0757 109.68C41.0191 109.68 43.5333 110.722 45.6182 112.807C47.7031 114.892 48.7456 117.406 48.7456 120.35C48.7456 123.293 47.7031 125.807 45.6182 127.892C43.5333 129.977 41.0191 131.019 38.0757 131.019Z" fill="#A5DBA6"/>
<path d="M82.4398 178.183V159.787H119.232L131.19 178.183H82.4398ZM131.006 178.183C125.978 178.183 121.379 176.956 117.209 174.504C113.039 172.051 109.666 168.739 107.091 164.57C104.638 160.277 103.412 155.617 103.412 150.588C103.412 145.437 104.638 140.777 107.091 136.607C109.666 132.437 113.039 129.126 117.209 126.673C121.379 124.22 125.978 122.994 131.006 122.994C136.034 122.994 140.633 124.22 144.803 126.673C148.973 129.126 152.284 132.437 154.737 136.607C157.19 140.777 158.417 145.437 158.417 150.588C158.417 155.617 157.19 160.277 154.737 164.57C152.284 168.739 148.973 172.051 144.803 174.504C140.633 176.956 136.034 178.183 131.006 178.183ZM131.006 159.787C133.582 159.787 135.728 158.928 137.445 157.211C139.284 155.371 140.204 153.164 140.204 150.588C140.204 148.013 139.284 145.867 137.445 144.15C135.728 142.31 133.582 141.39 131.006 141.39C128.431 141.39 126.223 142.31 124.383 144.15C122.666 145.867 121.808 148.013 121.808 150.588C121.808 153.164 122.666 155.371 124.383 157.211C126.223 158.928 128.431 159.787 131.006 159.787Z" fill="#A5DBA6"/>
<path d="M89.3368 94.6635L98.5349 76.2672H134.776V94.6635H89.3368ZM64.6857 118.947C71.6763 120.786 77.3792 121.583 81.7943 121.338C86.332 121.093 89.8273 120.112 92.2802 118.395C94.733 116.678 96.3887 114.532 97.2472 111.956C98.2283 109.381 98.7189 106.805 98.7189 104.23V71.1163L117.115 67.0691V102.39C117.115 108.89 115.705 114.164 112.884 118.211C110.186 122.381 106.629 125.385 102.214 127.225C97.799 129.187 93.1387 130.107 88.233 129.984C83.4499 129.862 78.9122 128.819 74.6197 126.857C70.4499 125.017 67.1386 122.381 64.6857 118.947ZM117.115 67.0691L89.7047 39.4746C91.299 39.4746 93.3839 39.4746 95.9594 39.4746C98.5349 39.4746 101.172 39.2907 103.87 38.9227C106.691 38.4322 109.266 37.5737 111.596 36.3473C114.049 35.1208 115.889 33.3425 117.115 31.0123V67.0691ZM89.7047 94.6635C84.6764 94.6635 80.0773 93.4371 75.9075 90.9842C71.7376 88.5314 68.365 85.2201 65.7895 81.0503C63.3367 76.7578 62.1102 72.0974 62.1102 67.0691C62.1102 61.9181 63.3367 57.2577 65.7895 53.0879C68.365 48.9181 71.7376 45.6067 75.9075 43.1539C80.0773 40.7011 84.6764 39.4746 89.7047 39.4746C94.733 39.4746 99.3321 40.7011 103.502 43.1539C107.672 45.6067 110.983 48.9181 113.436 53.0879C115.889 57.2577 117.115 61.9181 117.115 67.0691C117.115 72.0974 115.889 76.7578 113.436 81.0503C110.983 85.2201 107.672 88.5314 103.502 90.9842C99.3321 93.4371 94.733 94.6635 89.7047 94.6635ZM89.7047 76.2672C92.2802 76.2672 94.4264 75.4087 96.1434 73.6917C97.983 71.8521 98.9028 69.6446 98.9028 67.0691C98.9028 64.4936 97.983 62.3474 96.1434 60.6304C94.4264 58.7907 92.2802 57.8709 89.7047 57.8709C87.1292 57.8709 84.9217 58.7907 83.082 60.6304C81.365 62.3474 80.5065 64.4936 80.5065 67.0691C80.5065 69.6446 81.365 71.8521 83.082 73.6917C84.9217 75.4087 87.1292 76.2672 89.7047 76.2672Z" fill="#A5DBA6"/>
<path d="M61.0065 29.3567V23.2859C61.0065 20.9557 61.0678 19.1161 61.1904 17.767C61.3131 16.2953 61.6197 14.6396 62.1102 12.8C63.0914 9.12075 64.747 6.11602 67.0772 3.78583C69.4074 1.33299 72.9641 0.106567 77.7471 0.106567C79.4641 0.106567 81.4877 0.658456 83.8179 1.76223C86.2707 2.74337 88.1103 4.64432 89.3368 7.46508C88.6009 7.09716 87.0066 6.60659 84.5537 5.99338C82.1009 5.38017 80.016 5.31885 78.299 5.80942C76.3367 6.29999 74.9263 7.2198 74.0678 8.56886C73.2093 9.79528 72.7188 11.0217 72.5961 12.2481C72.4735 13.3519 72.4122 14.1491 72.4122 14.6396C72.4122 17.0925 73.0254 18.8095 74.2518 19.7906C75.6009 20.7717 77.1339 21.3849 78.8509 21.6302C80.6905 21.7529 82.3462 21.8142 83.8179 21.8142H88.6009L88.7849 29.3567H61.0065ZM47.5772 31.0123L53.0961 21.8142H97.2472L91.7283 31.0123H47.5772Z" fill="#A5DBA6"/>
<path d="M127.489 94.6635V76.2672H164.282L176.239 94.6635H127.489ZM176.055 94.6635C171.027 94.6635 166.428 93.4371 162.258 90.9842C158.088 88.5314 154.715 85.2201 152.14 81.0503C149.687 76.7578 148.461 72.0974 148.461 67.0691C148.461 61.9181 149.687 57.2577 152.14 53.0879C154.715 48.9181 158.088 45.6067 162.258 43.1539C166.428 40.7011 171.027 39.4746 176.055 39.4746C181.083 39.4746 185.683 40.7011 189.852 43.1539C194.022 45.6067 197.334 48.9181 199.786 53.0879C202.239 57.2577 203.466 61.9181 203.466 67.0691C203.466 72.0974 202.239 76.7578 199.786 81.0503C197.334 85.2201 194.022 88.5314 189.852 90.9842C185.683 93.4371 181.083 94.6635 176.055 94.6635ZM176.055 76.2672C178.631 76.2672 180.777 75.4087 182.494 73.6917C184.334 71.8521 185.253 69.6446 185.253 67.0691C185.253 64.4936 184.334 62.3474 182.494 60.6304C180.777 58.7907 178.631 57.8709 176.055 57.8709C173.48 57.8709 171.272 58.7907 169.432 60.6304C167.716 62.3474 166.857 64.4936 166.857 67.0691C166.857 69.6446 167.716 71.8521 169.432 73.6917C171.272 75.4087 173.48 76.2672 176.055 76.2672Z" fill="#A5DBA6"/>
</g>
</svg>
