<svg width="317" height="208" viewBox="0 0 317 208" fill="none" xmlns="http://www.w3.org/2000/svg">
<path d="M45.1633 35.6386C17.2849 44.555 1.91318 74.3829 10.8295 102.261L27.1841 153.397C30.3558 163.313 43.2997 165.693 49.7915 157.554L62.7591 141.294L77.4522 136.595C105.33 127.679 120.702 97.8507 111.786 69.9724C102.87 42.0941 73.0416 26.7223 45.1633 35.6386Z" fill="url(#paint0_linear_548_1158)" stroke="#FAFBFD" stroke-width="9.24553"/>
<path d="M41.9161 94.5271L83.9848 81.0723" stroke="#FAFBFD" stroke-width="12.6194" stroke-linecap="round" stroke-dasharray="25.24 25.24"/>
<path d="M124.311 4.92276C112.528 3.70025 101.986 12.2608 100.763 24.0433L93.3832 95.1713C92.1607 106.954 100.721 117.496 112.504 118.719L118.507 119.342C122.008 119.705 125.181 121.561 127.212 124.435L136.615 137.733C141.168 144.173 150.352 145.126 156.131 139.758L168.063 128.673C170.641 126.278 174.128 125.113 177.628 125.476L183.632 126.099C195.414 127.321 205.957 118.761 207.179 106.978L214.559 35.8504C215.782 24.0679 207.221 13.5253 195.439 12.3028L124.311 4.92276Z" fill="url(#paint1_linear_548_1158)" stroke="#FAFBFD" stroke-width="9.24553"/>
<path d="M136.683 47.3972L136.886 46.9689C139.429 41.6079 145.076 38.4328 150.978 39.0451V39.0451C157.706 39.7433 162.979 45.2358 163.496 51.9806V51.9806C163.85 56.5927 161.933 61.139 158.354 64.07L153.238 68.2606C150.92 70.1585 149.447 72.8949 149.138 75.8742V75.8742M147.06 95.8918L147.272 93.8483" stroke="#FAFBFD" stroke-width="12.0333" stroke-linecap="round" stroke-linejoin="round"/>
<path d="M269.48 58.0182C293.164 75.2154 298.423 108.357 281.226 132.041L249.682 175.484C243.565 183.909 230.527 182.116 226.91 172.353L219.686 152.851L207.203 143.787C183.519 126.59 178.26 93.4489 195.457 69.7643C212.654 46.0798 245.795 40.8209 269.48 58.0182Z" fill="url(#paint2_linear_548_1158)" stroke="#FAFBFD" stroke-width="9.24553"/>
<path d="M222.68 94.3599L229.709 109.207L266.91 96.153" stroke="#FAFBFD" stroke-width="12.6194" stroke-linecap="round" stroke-linejoin="round"/>
<g filter="url(#filter0_d_548_1158)">
<path d="M100.276 107.871C101.665 105.31 105.417 105.554 106.463 108.273L111.876 122.339C112.303 123.447 113.274 124.254 114.442 124.47L129.262 127.21C132.127 127.74 133.054 131.383 130.792 133.219L119.087 142.713C118.165 143.461 117.698 144.634 117.853 145.812L119.827 160.753C120.208 163.641 117.03 165.65 114.585 164.065L101.938 155.867C100.942 155.221 99.6816 155.14 98.6101 155.651L85.0097 162.145C82.3807 163.401 79.4884 160.998 80.2401 158.183L84.1287 143.622C84.435 142.475 84.1234 141.251 83.3057 140.39L72.9267 129.462C70.9204 127.35 72.3114 123.857 75.2207 123.702L90.2707 122.901C91.4563 122.838 92.5241 122.163 93.0902 121.119L100.276 107.871Z" fill="url(#paint3_linear_548_1158)"/>
<path d="M110.337 106.782C108.019 100.757 99.7052 100.218 96.6273 105.892L89.6381 118.778L75 119.557C68.5537 119.9 65.4713 127.64 69.9169 132.321L80.012 142.95L76.2298 157.112C74.5642 163.349 80.9729 168.673 86.7982 165.891L100.026 159.575L112.327 167.548C117.744 171.06 124.787 166.609 123.942 160.21L122.022 145.677L133.407 136.442C138.42 132.376 136.364 124.302 130.017 123.128L115.602 120.463L110.337 106.782ZM115.75 120.848L115.749 120.846L115.75 120.848Z" stroke="white" stroke-width="8.30173"/>
</g>
<g filter="url(#filter1_d_548_1158)">
<path d="M201.356 109.591C202.745 107.03 206.497 107.274 207.543 109.993L212.956 124.058C213.382 125.167 214.354 125.974 215.521 126.189L230.341 128.93C233.206 129.459 234.134 133.103 231.871 134.938L220.167 144.433C219.245 145.181 218.777 146.354 218.933 147.531L220.906 162.473C221.288 165.361 218.109 167.369 215.665 165.785L203.018 157.587C202.022 156.941 200.761 156.859 199.69 157.371L186.089 163.865C183.46 165.12 180.568 162.718 181.32 159.903L185.208 145.342C185.515 144.195 185.203 142.971 184.385 142.11L174.006 131.182C172 129.07 173.391 125.577 176.3 125.422L191.35 124.62C192.536 124.557 193.604 123.883 194.17 122.839L201.356 109.591Z" fill="url(#paint4_linear_548_1158)"/>
<path d="M211.417 108.502C209.098 102.477 200.785 101.938 197.707 107.612L190.718 120.497L176.08 121.277C169.633 121.62 166.551 129.36 170.997 134.041L181.092 144.67L177.309 158.832C175.644 165.069 182.052 170.392 187.878 167.611L201.106 161.294L213.407 169.268C218.824 172.779 225.867 168.329 225.021 161.929L223.102 147.397L234.486 138.162C239.5 134.095 237.444 126.022 231.096 124.848L216.682 122.183L211.417 108.502ZM216.83 122.568L216.829 122.566L216.83 122.568Z" stroke="white" stroke-width="8.30173"/>
</g>
<g filter="url(#filter2_d_548_1158)">
<path d="M149.774 125.905C151.163 123.344 154.915 123.587 155.961 126.306L161.374 140.372C161.8 141.48 162.772 142.287 163.94 142.503L178.76 145.243C181.624 145.773 182.552 149.417 180.29 151.252L168.585 160.746C167.663 161.494 167.196 162.668 167.351 163.845L169.325 178.787C169.706 181.675 166.527 183.683 164.083 182.098L151.436 173.901C150.44 173.255 149.179 173.173 148.108 173.685L134.507 180.179C131.878 181.434 128.986 179.032 129.738 176.217L133.626 161.656C133.933 160.509 133.621 159.285 132.803 158.424L122.424 147.496C120.418 145.383 121.809 141.89 124.718 141.735L139.768 140.934C140.954 140.871 142.022 140.196 142.588 139.153L149.774 125.905Z" fill="url(#paint5_linear_548_1158)"/>
<path d="M159.835 124.816C157.517 118.791 149.203 118.251 146.125 123.926L139.136 136.811L124.498 137.59C118.052 137.934 114.969 145.674 119.415 150.354L129.51 160.983L125.728 175.146C124.062 181.383 130.471 186.706 136.296 183.924L149.524 177.608L161.825 185.582C167.242 189.093 174.285 184.643 173.44 178.243L171.52 163.71L182.905 154.476C187.918 150.409 185.862 142.335 179.514 141.162L165.1 138.496L159.835 124.816ZM165.248 138.881L165.247 138.879L165.248 138.881Z" stroke="white" stroke-width="8.30173"/>
</g>
<defs>
<filter id="filter0_d_548_1158" x="55.3656" y="97.7825" width="93.3027" height="91.7659" filterUnits="userSpaceOnUse" color-interpolation-filters="sRGB">
<feFlood flood-opacity="0" result="BackgroundImageFix"/>
<feColorMatrix in="SourceAlpha" type="matrix" values="0 0 0 0 0 0 0 0 0 0 0 0 0 0 0 0 0 0 127 0" result="hardAlpha"/>
<feOffset dy="8.30173"/>
<feGaussianBlur stdDeviation="4.15087"/>
<feComposite in2="hardAlpha" operator="out"/>
<feColorMatrix type="matrix" values="0 0 0 0 0 0 0 0 0 0 0 0 0 0 0 0 0 0 0.25 0"/>
<feBlend mode="normal" in2="BackgroundImageFix" result="effect1_dropShadow_548_1158"/>
<feBlend mode="normal" in="SourceGraphic" in2="effect1_dropShadow_548_1158" result="shape"/>
</filter>
<filter id="filter1_d_548_1158" x="156.445" y="99.5023" width="93.3026" height="91.7659" filterUnits="userSpaceOnUse" color-interpolation-filters="sRGB">
<feFlood flood-opacity="0" result="BackgroundImageFix"/>
<feColorMatrix in="SourceAlpha" type="matrix" values="0 0 0 0 0 0 0 0 0 0 0 0 0 0 0 0 0 0 127 0" result="hardAlpha"/>
<feOffset dy="8.30173"/>
<feGaussianBlur stdDeviation="4.15087"/>
<feComposite in2="hardAlpha" operator="out"/>
<feColorMatrix type="matrix" values="0 0 0 0 0 0 0 0 0 0 0 0 0 0 0 0 0 0 0.25 0"/>
<feBlend mode="normal" in2="BackgroundImageFix" result="effect1_dropShadow_548_1158"/>
<feBlend mode="normal" in="SourceGraphic" in2="effect1_dropShadow_548_1158" result="shape"/>
</filter>
<filter id="filter2_d_548_1158" x="104.863" y="115.816" width="93.3027" height="91.7659" filterUnits="userSpaceOnUse" color-interpolation-filters="sRGB">
<feFlood flood-opacity="0" result="BackgroundImageFix"/>
<feColorMatrix in="SourceAlpha" type="matrix" values="0 0 0 0 0 0 0 0 0 0 0 0 0 0 0 0 0 0 127 0" result="hardAlpha"/>
<feOffset dy="8.30173"/>
<feGaussianBlur stdDeviation="4.15087"/>
<feComposite in2="hardAlpha" operator="out"/>
<feColorMatrix type="matrix" values="0 0 0 0 0 0 0 0 0 0 0 0 0 0 0 0 0 0 0.25 0"/>
<feBlend mode="normal" in2="BackgroundImageFix" result="effect1_dropShadow_548_1158"/>
<feBlend mode="normal" in="SourceGraphic" in2="effect1_dropShadow_548_1158" result="shape"/>
</filter>
<linearGradient id="paint0_linear_548_1158" x1="46.5715" y1="40.0417" x2="82.451" y2="152.225" gradientUnits="userSpaceOnUse">
<stop stop-color="#0868F8"/>
<stop offset="1" stop-color="#0242A0"/>
</linearGradient>
<linearGradient id="paint1_linear_548_1158" x1="159.398" y1="13.2108" x2="145.94" y2="142.915" gradientUnits="userSpaceOnUse">
<stop stop-color="#95D82D"/>
<stop offset="1" stop-color="#679C14"/>
</linearGradient>
<linearGradient id="paint2_linear_548_1158" x1="266.764" y1="61.7588" x2="197.562" y2="157.066" gradientUnits="userSpaceOnUse">
<stop stop-color="#F85168"/>
<stop offset="1" stop-color="#AA1E31"/>
</linearGradient>
<linearGradient id="paint3_linear_548_1158" x1="103.805" y1="101.365" x2="98.5389" y2="182.492" gradientUnits="userSpaceOnUse">
<stop stop-color="#F8C808"/>
<stop offset="1" stop-color="#F88A08"/>
</linearGradient>
<linearGradient id="paint4_linear_548_1158" x1="204.885" y1="103.085" x2="199.618" y2="184.211" gradientUnits="userSpaceOnUse">
<stop stop-color="#F8C808"/>
<stop offset="1" stop-color="#F88A08"/>
</linearGradient>
<linearGradient id="paint5_linear_548_1158" x1="153.303" y1="119.398" x2="148.037" y2="200.525" gradientUnits="userSpaceOnUse">
<stop stop-color="#F8C808"/>
<stop offset="1" stop-color="#F88A08"/>
</linearGradient>
</defs>
</svg>
