<svg width="277" height="208" viewBox="0 0 277 208" fill="none" xmlns="http://www.w3.org/2000/svg">
<mask id="path-1-outside-1_739_1349" maskUnits="userSpaceOnUse" x="2.69307" y="-6.80582" width="285.203" height="215.136" fill="black">
<rect fill="white" x="2.69307" y="-6.80582" width="285.203" height="215.136"/>
<path fill-rule="evenodd" clip-rule="evenodd" d="M50.0212 33.7518C52.4153 31.8928 55.6194 31.4523 58.4264 32.5962L92.6447 46.5405C95.4517 47.6844 97.4353 50.2389 97.8481 53.2417L102.881 89.8479C103.249 92.5236 102.32 95.1931 100.42 97.0582C102.447 95.8102 104.909 95.4716 107.198 96.1261C104.864 94.8431 103.25 92.5235 102.882 89.8479L97.8487 53.2418C97.4358 50.2389 98.6564 47.2439 101.05 45.3849L130.236 22.7231C132.63 20.8641 135.834 20.4235 138.641 21.5674L172.859 35.5117C175.666 36.6556 177.65 39.2101 178.063 42.213L183.096 78.8191C183.464 81.4955 182.534 84.1656 180.633 86.0308C182.66 84.7817 185.123 84.4426 187.413 85.0971C185.079 83.8141 183.465 81.4945 183.097 78.819L178.064 42.2128C177.651 39.21 178.871 36.2149 181.266 34.3559L210.451 11.6941C212.845 9.83512 216.049 9.39459 218.856 10.5385L253.074 24.4828C255.881 25.6267 257.865 28.1812 258.278 31.184L263.311 67.7902C263.724 70.793 262.503 73.7881 260.109 75.6471L230.924 98.3089C228.774 99.9781 225.971 100.504 223.39 99.7655C225.723 101.049 227.337 103.368 227.705 106.044L232.738 142.65C233.151 145.653 231.931 148.648 229.537 150.507L200.351 173.169C197.957 175.028 194.753 175.468 191.946 174.324L157.728 160.38C154.921 159.236 152.937 156.681 152.524 153.679L147.491 117.073C147.123 114.396 148.053 111.726 149.954 109.861C147.927 111.11 145.464 111.449 143.174 110.794C145.507 112.077 147.122 114.397 147.49 117.073L152.523 153.679C152.936 156.682 151.715 159.677 149.321 161.536L120.136 184.197C117.742 186.056 114.538 186.497 111.731 185.353L77.5123 171.409C74.7053 170.265 72.7218 167.71 72.3089 164.707L67.2758 128.101C66.908 125.426 67.8369 122.756 69.7375 120.891C67.4505 122.299 64.6096 122.549 62.089 121.522L27.8706 107.578C25.0636 106.434 23.0801 103.88 22.6672 100.877L17.6341 64.2705C17.2213 61.2677 18.4418 58.2726 20.8359 56.4136L50.0212 33.7518Z"/>
</mask>
<path fill-rule="evenodd" clip-rule="evenodd" d="M50.0212 33.7518C52.4153 31.8928 55.6194 31.4523 58.4264 32.5962L92.6447 46.5405C95.4517 47.6844 97.4353 50.2389 97.8481 53.2417L102.881 89.8479C103.249 92.5236 102.32 95.1931 100.42 97.0582C102.447 95.8102 104.909 95.4716 107.198 96.1261C104.864 94.8431 103.25 92.5235 102.882 89.8479L97.8487 53.2418C97.4358 50.2389 98.6564 47.2439 101.05 45.3849L130.236 22.7231C132.63 20.8641 135.834 20.4235 138.641 21.5674L172.859 35.5117C175.666 36.6556 177.65 39.2101 178.063 42.213L183.096 78.8191C183.464 81.4955 182.534 84.1656 180.633 86.0308C182.66 84.7817 185.123 84.4426 187.413 85.0971C185.079 83.8141 183.465 81.4945 183.097 78.819L178.064 42.2128C177.651 39.21 178.871 36.2149 181.266 34.3559L210.451 11.6941C212.845 9.83512 216.049 9.39459 218.856 10.5385L253.074 24.4828C255.881 25.6267 257.865 28.1812 258.278 31.184L263.311 67.7902C263.724 70.793 262.503 73.7881 260.109 75.6471L230.924 98.3089C228.774 99.9781 225.971 100.504 223.39 99.7655C225.723 101.049 227.337 103.368 227.705 106.044L232.738 142.65C233.151 145.653 231.931 148.648 229.537 150.507L200.351 173.169C197.957 175.028 194.753 175.468 191.946 174.324L157.728 160.38C154.921 159.236 152.937 156.681 152.524 153.679L147.491 117.073C147.123 114.396 148.053 111.726 149.954 109.861C147.927 111.11 145.464 111.449 143.174 110.794C145.507 112.077 147.122 114.397 147.49 117.073L152.523 153.679C152.936 156.682 151.715 159.677 149.321 161.536L120.136 184.197C117.742 186.056 114.538 186.497 111.731 185.353L77.5123 171.409C74.7053 170.265 72.7218 167.71 72.3089 164.707L67.2758 128.101C66.908 125.426 67.8369 122.756 69.7375 120.891C67.4505 122.299 64.6096 122.549 62.089 121.522L27.8706 107.578C25.0636 106.434 23.0801 103.88 22.6672 100.877L17.6341 64.2705C17.2213 61.2677 18.4418 58.2726 20.8359 56.4136L50.0212 33.7518Z" fill="url(#paint0_linear_739_1349)"/>
<path d="M58.4264 32.5962L62.0367 23.7367L62.0367 23.7367L58.4264 32.5962ZM50.0212 33.7518L44.1538 26.1954L44.1538 26.1954L50.0212 33.7518ZM92.6447 46.5405L89.0344 55.4L89.0344 55.4L92.6447 46.5405ZM97.8481 53.2417L107.326 51.9386L97.8481 53.2417ZM102.881 89.8479L93.4035 91.151L102.881 89.8479ZM100.42 97.0582L93.7187 90.23L105.435 105.205L100.42 97.0582ZM107.198 96.1261L104.567 105.324L111.807 87.7431L107.198 96.1261ZM101.05 45.3849L106.918 52.9412L106.918 52.9412L101.05 45.3849ZM130.236 22.7231L124.368 15.1667L124.368 15.1667L130.236 22.7231ZM138.641 21.5674L142.251 12.7079L142.251 12.7079L138.641 21.5674ZM172.859 35.5117L176.47 26.6522L176.47 26.6522L172.859 35.5117ZM180.633 86.0308L173.933 79.201L185.651 94.176L180.633 86.0308ZM187.413 85.0971L184.783 94.2955L192.022 76.7141L187.413 85.0971ZM181.266 34.3559L187.133 41.9123L187.133 41.9123L181.266 34.3559ZM210.451 11.6941L204.583 4.13773L204.583 4.13774L210.451 11.6941ZM218.856 10.5385L222.466 1.67898L222.466 1.67898L218.856 10.5385ZM253.074 24.4828L256.685 15.6233L256.685 15.6233L253.074 24.4828ZM260.109 75.6471L265.976 83.2034L260.109 75.6471ZM230.924 98.3089L236.791 105.865L236.791 105.865L230.924 98.3089ZM223.39 99.7655L226.019 90.5672L218.78 108.149L223.39 99.7655ZM229.537 150.507L235.404 158.063L235.404 158.063L229.537 150.507ZM200.351 173.169L194.484 165.612L200.351 173.169ZM191.946 174.324L195.556 165.465L191.946 174.324ZM157.728 160.38L154.117 169.239L154.117 169.239L157.728 160.38ZM152.524 153.679L162.002 152.376L152.524 153.679ZM147.491 117.073L138.014 118.376L147.491 117.073ZM149.954 109.861L156.654 116.691L144.936 101.716L149.954 109.861ZM143.174 110.794L145.804 101.596L138.564 119.177L143.174 110.794ZM147.49 117.073L138.012 118.376L147.49 117.073ZM152.523 153.679L162.001 152.376L152.523 153.679ZM149.321 161.536L143.454 153.979L143.454 153.979L149.321 161.536ZM120.136 184.197L114.268 176.641L120.136 184.197ZM111.731 185.353L108.12 194.213L108.12 194.213L111.731 185.353ZM77.5123 171.409L81.1226 162.549L81.1226 162.549L77.5123 171.409ZM69.7375 120.891L76.4383 127.719L64.7221 112.744L69.7375 120.891ZM62.089 121.522L65.6993 112.663L65.6993 112.663L62.089 121.522ZM27.8706 107.578L24.2603 116.437L24.2603 116.437L27.8706 107.578ZM22.6672 100.877L13.1895 102.18L22.6672 100.877ZM17.6341 64.2705L27.1119 62.9674L17.6341 64.2705ZM20.8359 56.4136L14.9685 48.8573L14.9685 48.8573L20.8359 56.4136ZM62.0367 23.7367C56.0645 21.303 49.2476 22.2402 44.1538 26.1954L55.8886 41.3082C55.5831 41.5454 55.1742 41.6016 54.8161 41.4557L62.0367 23.7367ZM96.2551 37.681L62.0367 23.7367L54.8161 41.4557L89.0344 55.4L96.2551 37.681ZM107.326 51.9386C106.447 45.5497 102.227 40.1147 96.2551 37.681L89.0344 55.4C88.6762 55.254 88.4231 54.928 88.3704 54.5449L107.326 51.9386ZM112.359 88.5447L107.326 51.9386L88.3704 54.5449L93.4035 91.151L112.359 88.5447ZM107.12 103.886C111.165 99.9173 113.142 94.2387 112.359 88.5447L93.4035 91.151C93.3564 90.8085 93.4754 90.4688 93.7187 90.23L107.12 103.886ZM109.828 86.9279C104.956 85.5348 99.7191 86.2549 95.4042 88.9113L105.435 105.205C105.174 105.365 104.862 105.408 104.567 105.324L109.828 86.9279ZM93.4041 91.151C94.1869 96.8446 97.6227 101.779 102.588 104.509L111.807 87.7431C112.106 87.9073 112.312 88.2023 112.359 88.5448L93.4041 91.151ZM88.371 54.5449L93.4041 91.151L112.359 88.5448L107.326 51.9387L88.371 54.5449ZM95.1831 37.8285C90.0893 41.7837 87.4926 48.1559 88.371 54.5449L107.326 51.9387C107.379 52.3219 107.223 52.704 106.918 52.9412L95.1831 37.8285ZM124.368 15.1667L95.1831 37.8285L106.918 52.9412L136.103 30.2794L124.368 15.1667ZM142.251 12.7079C136.279 10.2742 129.462 11.2115 124.368 15.1667L136.103 30.2794C135.798 30.5167 135.389 30.5729 135.031 30.4269L142.251 12.7079ZM176.47 26.6522L142.251 12.7079L135.031 30.4269L169.249 44.3712L176.47 26.6522ZM187.54 40.9099C186.662 34.5209 182.442 29.086 176.47 26.6522L169.249 44.3712C168.891 44.2252 168.638 43.8993 168.585 43.5161L187.54 40.9099ZM192.573 77.516L187.54 40.9099L168.585 43.5161L173.618 80.1222L192.573 77.516ZM187.332 92.8606C191.378 88.8914 193.357 83.2114 192.573 77.516L173.618 80.1222C173.571 79.7796 173.69 79.4398 173.933 79.201L187.332 92.8606ZM185.651 94.176C185.39 94.3366 185.077 94.3797 184.783 94.2955L190.042 75.8987C185.169 74.5055 179.93 75.2268 175.615 77.8856L185.651 94.176ZM173.619 80.1221C174.402 85.8157 177.838 90.7498 182.803 93.4801L192.022 76.7141C192.321 76.8784 192.527 77.1734 192.575 77.5158L173.619 80.1221ZM168.586 43.516L173.619 80.1221L192.575 77.5158L187.541 40.9097L168.586 43.516ZM175.398 26.7995C170.304 30.7548 167.708 37.127 168.586 43.516L187.541 40.9097C187.594 41.2929 187.438 41.6751 187.133 41.9123L175.398 26.7995ZM204.583 4.13774L175.398 26.7996L187.133 41.9123L216.318 19.2505L204.583 4.13774ZM222.466 1.67898C216.494 -0.754738 209.677 0.182526 204.583 4.13773L216.318 19.2505C216.013 19.4877 215.604 19.5439 215.246 19.398L222.466 1.67898ZM256.685 15.6233L222.466 1.67898L215.246 19.398L249.464 33.3423L256.685 15.6233ZM267.755 29.8809C266.877 23.492 262.657 18.057 256.685 15.6233L249.464 33.3423C249.106 33.1963 248.853 32.8704 248.8 32.4872L267.755 29.8809ZM272.789 66.487L267.755 29.8809L248.8 32.4872L253.833 69.0933L272.789 66.487ZM265.976 83.2034C271.07 79.2482 273.667 72.876 272.789 66.487L253.833 69.0933C253.78 68.7101 253.936 68.3279 254.242 68.0907L265.976 83.2034ZM236.791 105.865L265.976 83.2034L254.242 68.0907L225.056 90.7525L236.791 105.865ZM220.76 108.964C226.254 110.535 232.217 109.417 236.791 105.865L225.056 90.7525C225.332 90.5389 225.689 90.4726 226.019 90.5672L220.76 108.964ZM218.78 108.149C218.481 107.984 218.275 107.689 218.228 107.347L237.183 104.741C236.4 99.047 232.964 94.1128 227.999 91.3825L218.78 108.149ZM218.228 107.347L223.261 143.953L242.216 141.347L237.183 104.741L218.228 107.347ZM223.261 143.953C223.208 143.57 223.364 143.188 223.669 142.95L235.404 158.063C240.498 154.108 243.095 147.736 242.216 141.347L223.261 143.953ZM223.669 142.95L194.484 165.612L206.219 180.725L235.404 158.063L223.669 142.95ZM194.484 165.612C194.789 165.375 195.198 165.319 195.556 165.465L188.336 183.184C194.308 185.617 201.125 184.68 206.219 180.725L194.484 165.612ZM195.556 165.465L161.338 151.52L154.117 169.239L188.336 183.184L195.556 165.465ZM161.338 151.52C161.696 151.666 161.949 151.992 162.002 152.376L143.047 154.982C143.925 161.371 148.145 166.806 154.117 169.239L161.338 151.52ZM162.002 152.376L156.969 115.769L138.014 118.376L143.047 154.982L162.002 152.376ZM156.969 115.769C157.016 116.112 156.897 116.452 156.654 116.691L143.255 103.031C139.209 107 137.231 112.68 138.014 118.376L156.969 115.769ZM140.544 119.993C145.417 121.386 150.657 120.665 154.973 118.006L144.936 101.716C145.197 101.555 145.51 101.512 145.804 101.596L140.544 119.993ZM156.968 115.769C156.185 110.076 152.749 105.142 147.784 102.411L138.564 119.177C138.265 119.013 138.059 118.718 138.012 118.376L156.968 115.769ZM162.001 152.376L156.968 115.769L138.012 118.376L143.045 154.982L162.001 152.376ZM155.188 169.092C160.282 165.137 162.879 158.764 162.001 152.376L143.045 154.982C142.992 154.599 143.148 154.216 143.454 153.979L155.188 169.092ZM126.003 191.754L155.188 169.092L143.454 153.979L114.268 176.641L126.003 191.754ZM108.12 194.213C114.093 196.646 120.909 195.709 126.003 191.754L114.268 176.641C114.574 176.404 114.983 176.348 115.341 176.494L108.12 194.213ZM73.902 180.268L108.12 194.213L115.341 176.494L81.1226 162.549L73.902 180.268ZM62.8312 166.011C63.7096 172.399 67.9298 177.834 73.902 180.268L81.1226 162.549C81.4808 162.695 81.7339 163.021 81.7866 163.404L62.8312 166.011ZM57.7981 129.404L62.8312 166.011L81.7866 163.404L76.7535 126.798L57.7981 129.404ZM63.0366 114.063C58.9922 118.032 57.0153 123.71 57.7981 129.404L76.7535 126.798C76.8006 127.141 76.6816 127.48 76.4383 127.719L63.0366 114.063ZM58.4786 130.382C63.8426 132.568 69.8859 132.034 74.7529 129.038L64.7221 112.744C65.015 112.564 65.3767 112.531 65.6993 112.663L58.4786 130.382ZM24.2603 116.437L58.4786 130.382L65.6993 112.663L31.4809 98.7184L24.2603 116.437ZM13.1895 102.18C14.0679 108.569 18.2881 114.004 24.2603 116.437L31.481 98.7184C31.8391 98.8644 32.0922 99.1904 32.1449 99.5735L13.1895 102.18ZM8.15644 65.5737L13.1895 102.18L32.1449 99.5735L27.1119 62.9674L8.15644 65.5737ZM14.9685 48.8573C9.87477 52.8125 7.27801 59.1847 8.15644 65.5737L27.1119 62.9674C27.1645 63.3506 27.0088 63.7328 26.7033 63.97L14.9685 48.8573ZM44.1538 26.1954L14.9685 48.8573L26.7033 63.97L55.8886 41.3082L44.1538 26.1954Z" fill="white" mask="url(#path-1-outside-1_739_1349)"/>
<g filter="url(#filter0_d_739_1349)">
<path d="M210.451 11.6941C212.845 9.83507 216.049 9.39454 218.856 10.5384L253.074 24.4827C255.881 25.6266 257.865 28.1811 258.278 31.184L263.311 67.7901C263.724 70.793 262.503 73.788 260.109 75.647L230.924 98.3088C228.53 100.168 225.325 100.608 222.518 99.4645L188.3 85.5202C185.493 84.3763 183.51 81.8218 183.097 78.8189L178.064 42.2128C177.651 39.2099 178.871 36.2149 181.265 34.3559L210.451 11.6941Z" fill="url(#paint1_linear_739_1349)"/>
</g>
<g filter="url(#filter1_d_739_1349)">
<path d="M50.0212 33.7517C52.4154 31.8927 55.6194 31.4522 58.4264 32.5961L92.6447 46.5404C95.4517 47.6843 97.4353 50.2388 97.8481 53.2417L102.881 89.8478C103.294 92.8507 102.074 95.8457 99.6794 97.7047L70.4941 120.367C68.1 122.226 64.896 122.666 62.089 121.522L27.8706 107.578C25.0636 106.434 23.0801 103.879 22.6672 100.877L17.6342 64.2705C17.2213 61.2676 18.4418 58.2726 20.8359 56.4136L50.0212 33.7517Z" fill="url(#paint2_linear_739_1349)"/>
</g>
<g filter="url(#filter2_d_739_1349)">
<path d="M99.6628 97.5826C102.057 95.7236 105.261 95.283 108.068 96.4269L142.286 110.371C145.093 111.515 147.077 114.07 147.49 117.072L152.523 153.679C152.936 156.681 151.715 159.677 149.321 161.536L120.136 184.197C117.742 186.056 114.538 186.497 111.731 185.353L77.5122 171.409C74.7052 170.265 72.7217 167.71 72.3088 164.707L67.2758 128.101C66.8629 125.098 68.0834 122.103 70.4775 120.244L99.6628 97.5826Z" fill="url(#paint3_linear_739_1349)"/>
</g>
<g filter="url(#filter3_d_739_1349)">
<path d="M130.236 22.723C132.63 20.864 135.834 20.4235 138.641 21.5674L172.859 35.5117C175.666 36.6555 177.65 39.21 178.063 42.2129L183.096 78.819C183.509 81.8219 182.288 84.817 179.894 86.676L150.709 109.338C148.314 111.197 145.11 111.637 142.303 110.493L108.085 96.5491C105.278 95.4052 103.295 92.8507 102.882 89.8478L97.8486 53.2417C97.4358 50.2388 98.6563 47.2438 101.05 45.3848L130.236 22.723Z" fill="url(#paint4_linear_739_1349)"/>
</g>
<g filter="url(#filter4_d_739_1349)">
<path d="M179.878 86.5537C182.272 84.6947 185.476 84.2542 188.283 85.398L222.502 99.3423C225.309 100.486 227.292 103.041 227.705 106.044L232.738 142.65C233.151 145.653 231.931 148.648 229.536 150.507L200.351 173.168C197.957 175.027 194.753 175.468 191.946 174.324L157.728 160.38C154.921 159.236 152.937 156.681 152.524 153.679L147.491 117.072C147.078 114.07 148.299 111.074 150.693 109.216L179.878 86.5537Z" fill="url(#paint5_linear_739_1349)"/>
</g>
<g filter="url(#filter5_d_739_1349)">
<path d="M63.248 94.3262C61.0627 94.6266 58.9868 94.5085 57.0203 93.9717C55.0538 93.4349 53.2764 92.552 51.6879 91.3231C50.0995 90.0942 48.7777 88.5781 47.7226 86.7748C46.6948 84.9678 46.025 82.9307 45.7133 80.6634C45.4016 78.3961 45.483 76.2556 45.9577 74.242C46.4559 72.1974 47.2921 70.3846 48.4664 68.8036C49.6643 67.1916 51.1394 65.8755 52.8918 64.8552C54.6404 63.8076 56.6074 63.1336 58.7927 62.8331C60.9781 62.5326 62.9819 62.6329 64.8043 63.1338C66.654 63.631 68.2643 64.4116 69.6352 65.4756C71.0024 66.5123 72.0451 67.7188 72.7632 69.0953L68.1319 72.1535C67.3404 70.648 66.1941 69.4974 64.6931 68.7018C63.192 67.9062 61.4581 67.6436 59.4913 67.914C57.5791 68.177 55.9475 68.8605 54.5963 69.9648C53.2724 71.0653 52.3097 72.4641 51.708 74.1612C51.1337 75.8545 50.993 77.7665 51.2859 79.8972C51.5789 82.0279 52.2459 83.8427 53.287 85.3418C54.3517 86.8097 55.6835 87.893 57.2826 88.5916C58.8816 89.2903 60.6372 89.5081 62.5494 89.2452C64.1065 89.0311 65.4993 88.5335 66.7279 87.7522C67.9527 86.9437 68.8842 85.9249 69.5224 84.696C70.1569 83.4398 70.367 82.0331 70.1529 80.4761L69.8318 78.1405L72.6765 80.0039L61.3673 81.5588L60.7195 76.8466L75.0608 74.8748L75.4833 77.948C75.8063 80.2972 75.6957 82.4277 75.1514 84.3396C74.6071 86.2514 73.7365 87.9158 72.5397 89.3329C71.3664 90.7189 69.9762 91.8424 68.3689 92.7036C66.7579 93.5374 65.0509 94.0783 63.248 94.3262Z" fill="#FFF6D5"/>
</g>
<g filter="url(#filter6_d_739_1349)">
<path d="M126.43 85.1381L132.763 53.1637L139.975 52.1721L154.703 81.2508L148.638 82.0846L145.565 75.8271L133.764 77.4497L132.453 84.3099L126.43 85.1381ZM134.686 72.3129L143.291 71.1298L136.12 56.6266L137.677 56.4125L134.686 72.3129Z" fill="#FFF6D5"/>
</g>
<g filter="url(#filter7_d_739_1349)">
<path d="M97.3471 159.793L93.1499 129.266L98.4767 128.534L112.044 142.492L109.504 142.841L118.555 125.773L123.881 125.041L128.079 155.568L122.465 156.339L119.141 132.164L121.386 132.398L111.914 149.44L111.258 149.53L97.8251 135.637L99.5958 134.851L102.92 159.027L97.3471 159.793Z" fill="#FFF6D5"/>
</g>
<path d="M182.447 148.092L178.25 117.566L198.533 114.777L199.209 119.694L184.499 121.717L185.575 129.543L199.465 127.633L200.141 132.55L186.251 134.46L187.344 142.409L202.054 140.386L202.73 145.303L182.447 148.092Z" fill="#FFF6D5"/>
<path d="M210.122 73.6311L218.007 56.8908L206.006 43.0933L212.398 42.2145L222.219 53.5145L219.268 53.9201L225.633 40.3947L232.026 39.5159L224.235 56.0345L236.305 70.0312L229.913 70.91L220.029 59.4518L222.979 59.0461L216.514 72.7523L210.122 73.6311Z" fill="#556B77"/>
<defs>
<filter id="filter0_d_739_1349" x="169.5" y="5.66889" width="102.374" height="107.149" filterUnits="userSpaceOnUse" color-interpolation-filters="sRGB">
<feFlood flood-opacity="0" result="BackgroundImageFix"/>
<feColorMatrix in="SourceAlpha" type="matrix" values="0 0 0 0 0 0 0 0 0 0 0 0 0 0 0 0 0 0 127 0" result="hardAlpha"/>
<feOffset dy="4.24212"/>
<feGaussianBlur stdDeviation="4.24212"/>
<feComposite in2="hardAlpha" operator="out"/>
<feColorMatrix type="matrix" values="0 0 0 0 0.333333 0 0 0 0 0.419608 0 0 0 0 0.466667 0 0 0 0.35 0"/>
<feBlend mode="normal" in2="BackgroundImageFix" result="effect1_dropShadow_739_1349"/>
<feBlend mode="normal" in="SourceGraphic" in2="effect1_dropShadow_739_1349" result="shape"/>
</filter>
<filter id="filter1_d_739_1349" x="0.586435" y="19.2423" width="119.343" height="124.118" filterUnits="userSpaceOnUse" color-interpolation-filters="sRGB">
<feFlood flood-opacity="0" result="BackgroundImageFix"/>
<feColorMatrix in="SourceAlpha" type="matrix" values="0 0 0 0 0 0 0 0 0 0 0 0 0 0 0 0 0 0 127 0" result="hardAlpha"/>
<feOffset dy="4.24212"/>
<feGaussianBlur stdDeviation="8.48425"/>
<feComposite in2="hardAlpha" operator="out"/>
<feColorMatrix type="matrix" values="0 0 0 0 0.976471 0 0 0 0 0.592157 0 0 0 0 0.0313726 0 0 0 0.32 0"/>
<feBlend mode="normal" in2="BackgroundImageFix" result="effect1_dropShadow_739_1349"/>
<feBlend mode="normal" in="SourceGraphic" in2="effect1_dropShadow_739_1349" result="shape"/>
</filter>
<filter id="filter2_d_739_1349" x="50.228" y="83.0731" width="119.343" height="124.118" filterUnits="userSpaceOnUse" color-interpolation-filters="sRGB">
<feFlood flood-opacity="0" result="BackgroundImageFix"/>
<feColorMatrix in="SourceAlpha" type="matrix" values="0 0 0 0 0 0 0 0 0 0 0 0 0 0 0 0 0 0 127 0" result="hardAlpha"/>
<feOffset dy="4.24212"/>
<feGaussianBlur stdDeviation="8.48425"/>
<feComposite in2="hardAlpha" operator="out"/>
<feColorMatrix type="matrix" values="0 0 0 0 0.976471 0 0 0 0 0.592157 0 0 0 0 0.0313726 0 0 0 0.32 0"/>
<feBlend mode="normal" in2="BackgroundImageFix" result="effect1_dropShadow_739_1349"/>
<feBlend mode="normal" in="SourceGraphic" in2="effect1_dropShadow_739_1349" result="shape"/>
</filter>
<filter id="filter3_d_739_1349" x="80.8009" y="8.21357" width="119.342" height="124.118" filterUnits="userSpaceOnUse" color-interpolation-filters="sRGB">
<feFlood flood-opacity="0" result="BackgroundImageFix"/>
<feColorMatrix in="SourceAlpha" type="matrix" values="0 0 0 0 0 0 0 0 0 0 0 0 0 0 0 0 0 0 127 0" result="hardAlpha"/>
<feOffset dy="4.24212"/>
<feGaussianBlur stdDeviation="8.48425"/>
<feComposite in2="hardAlpha" operator="out"/>
<feColorMatrix type="matrix" values="0 0 0 0 0.976471 0 0 0 0 0.592157 0 0 0 0 0.0313726 0 0 0 0.32 0"/>
<feBlend mode="normal" in2="BackgroundImageFix" result="effect1_dropShadow_739_1349"/>
<feBlend mode="normal" in="SourceGraphic" in2="effect1_dropShadow_739_1349" result="shape"/>
</filter>
<filter id="filter4_d_739_1349" x="130.443" y="72.0443" width="119.342" height="124.118" filterUnits="userSpaceOnUse" color-interpolation-filters="sRGB">
<feFlood flood-opacity="0" result="BackgroundImageFix"/>
<feColorMatrix in="SourceAlpha" type="matrix" values="0 0 0 0 0 0 0 0 0 0 0 0 0 0 0 0 0 0 127 0" result="hardAlpha"/>
<feOffset dy="4.24212"/>
<feGaussianBlur stdDeviation="8.48425"/>
<feComposite in2="hardAlpha" operator="out"/>
<feColorMatrix type="matrix" values="0 0 0 0 0.976471 0 0 0 0 0.592157 0 0 0 0 0.0313726 0 0 0 0.32 0"/>
<feBlend mode="normal" in2="BackgroundImageFix" result="effect1_dropShadow_739_1349"/>
<feBlend mode="normal" in="SourceGraphic" in2="effect1_dropShadow_739_1349" result="shape"/>
</filter>
<filter id="filter5_d_739_1349" x="26.5814" y="48.1349" width="67.8535" height="69.5146" filterUnits="userSpaceOnUse" color-interpolation-filters="sRGB">
<feFlood flood-opacity="0" result="BackgroundImageFix"/>
<feColorMatrix in="SourceAlpha" type="matrix" values="0 0 0 0 0 0 0 0 0 0 0 0 0 0 0 0 0 0 127 0" result="hardAlpha"/>
<feOffset dy="4.24212"/>
<feGaussianBlur stdDeviation="8.48425"/>
<feComposite in2="hardAlpha" operator="out"/>
<feColorMatrix type="matrix" values="0 0 0 0 0.976471 0 0 0 0 0.592157 0 0 0 0 0.0313726 0 0 0 0.32 0"/>
<feBlend mode="normal" in2="BackgroundImageFix" result="effect1_dropShadow_739_1349"/>
<feBlend mode="normal" in="SourceGraphic" in2="effect1_dropShadow_739_1349" result="shape"/>
</filter>
<filter id="filter6_d_739_1349" x="105.264" y="37.9979" width="66.407" height="68.3508" filterUnits="userSpaceOnUse" color-interpolation-filters="sRGB">
<feFlood flood-opacity="0" result="BackgroundImageFix"/>
<feColorMatrix in="SourceAlpha" type="matrix" values="0 0 0 0 0 0 0 0 0 0 0 0 0 0 0 0 0 0 127 0" result="hardAlpha"/>
<feOffset dy="4.24212"/>
<feGaussianBlur stdDeviation="8.48425"/>
<feComposite in2="hardAlpha" operator="out"/>
<feColorMatrix type="matrix" values="0 0 0 0 0.976471 0 0 0 0 0.592157 0 0 0 0 0.0313726 0 0 0 0.32 0"/>
<feBlend mode="normal" in2="BackgroundImageFix" result="effect1_dropShadow_739_1349"/>
<feBlend mode="normal" in="SourceGraphic" in2="effect1_dropShadow_739_1349" result="shape"/>
</filter>
<filter id="filter7_d_739_1349" x="76.1814" y="112.315" width="68.8656" height="68.6889" filterUnits="userSpaceOnUse" color-interpolation-filters="sRGB">
<feFlood flood-opacity="0" result="BackgroundImageFix"/>
<feColorMatrix in="SourceAlpha" type="matrix" values="0 0 0 0 0 0 0 0 0 0 0 0 0 0 0 0 0 0 127 0" result="hardAlpha"/>
<feOffset dy="4.24212"/>
<feGaussianBlur stdDeviation="8.48425"/>
<feComposite in2="hardAlpha" operator="out"/>
<feColorMatrix type="matrix" values="0 0 0 0 0.976471 0 0 0 0 0.592157 0 0 0 0 0.0313726 0 0 0 0.32 0"/>
<feBlend mode="normal" in2="BackgroundImageFix" result="effect1_dropShadow_739_1349"/>
<feBlend mode="normal" in="SourceGraphic" in2="effect1_dropShadow_739_1349" result="shape"/>
</filter>
<linearGradient id="paint0_linear_739_1349" x1="183.747" y1="83.5495" x2="198.047" y2="187.557" gradientUnits="userSpaceOnUse">
<stop stop-color="#F8C808"/>
<stop offset="1" stop-color="#F88A08"/>
</linearGradient>
<linearGradient id="paint1_linear_739_1349" x1="214.32" y1="8.68988" x2="228.62" y2="112.697" gradientUnits="userSpaceOnUse">
<stop stop-color="#DAE8F0"/>
<stop offset="1" stop-color="#9FC0D2"/>
</linearGradient>
<linearGradient id="paint2_linear_739_1349" x1="53.8902" y1="30.7476" x2="68.1904" y2="134.755" gradientUnits="userSpaceOnUse">
<stop stop-color="#F8C808"/>
<stop offset="1" stop-color="#F88A08"/>
</linearGradient>
<linearGradient id="paint3_linear_739_1349" x1="103.532" y1="94.5784" x2="117.832" y2="198.586" gradientUnits="userSpaceOnUse">
<stop stop-color="#F8C808"/>
<stop offset="1" stop-color="#F88A08"/>
</linearGradient>
<linearGradient id="paint4_linear_739_1349" x1="134.105" y1="19.7188" x2="148.405" y2="123.726" gradientUnits="userSpaceOnUse">
<stop stop-color="#F8C808"/>
<stop offset="1" stop-color="#F88A08"/>
</linearGradient>
<linearGradient id="paint5_linear_739_1349" x1="183.747" y1="83.5495" x2="198.047" y2="187.557" gradientUnits="userSpaceOnUse">
<stop stop-color="#F8C808"/>
<stop offset="1" stop-color="#F88A08"/>
</linearGradient>
</defs>
</svg>
