<svg width="42" height="47" viewBox="0 0 42 47" fill="none" xmlns="http://www.w3.org/2000/svg">
<path fill-rule="evenodd" clip-rule="evenodd" d="M18.4197 0.59304C18.0506 0.876736 17.6248 1.46702 17.4733 1.90417C17.2525 2.54152 17.0678 2.65371 16.541 2.47027C15.3189 2.04441 12.849 2.21978 12.0583 2.78846C11.0884 3.4861 10.1531 5.16217 10.1531 6.20217C10.1531 7.57101 11.2302 9.09363 12.7055 9.80996C14.2941 10.5814 16.9991 10.4863 18.1264 9.61943C18.7821 9.11555 18.7656 9.10362 17.4108 9.10362C15.6334 9.10362 14.8493 8.32635 14.8493 6.56389C14.8493 5.04676 14.2852 4.43487 13.1647 4.73662C12.3895 4.9452 12.3763 4.92941 12.8673 4.38136C13.5373 3.63279 16.1138 3.62118 17.3902 4.36072C18.714 5.12735 19.5476 6.76925 19.5476 8.60973C19.5476 9.90539 19.4017 10.2955 18.5795 11.1981C17.5423 12.3368 15.974 12.9674 14.1719 12.9703C9.84803 12.9774 7.10042 9.68681 9.21963 7.0394C9.69328 6.44783 9.67478 6.43365 8.69695 6.64158C8.13962 6.7599 7.38173 7.16771 7.0135 7.5478C6.53428 8.04201 5.94464 8.24737 4.94362 8.26832C3.63192 8.29573 3.53825 8.35505 3.44869 9.21258C3.39231 9.75386 3.56086 10.3796 3.86126 10.7439C4.31758 11.2974 4.32081 11.3603 3.89356 11.3603C3.17501 11.3603 1.38732 13.2259 0.679645 14.7147C0.247698 15.6232 0.0471413 16.6464 0.0362765 17.9956C0.022769 19.6497 0.153439 20.1671 0.871687 21.3058C1.83454 22.8326 2.07327 22.8893 1.587 21.4751C0.873449 19.3996 1.78521 17.4324 4.42945 15.342C5.16737 14.7589 5.25371 14.5548 4.97504 14.0525C4.7877 13.7143 4.31758 13.4606 3.89033 13.4671C2.67024 13.4854 3.51564 12.752 4.99559 12.5083C6.02892 12.3381 6.89252 12.5212 9.39523 13.4403C14.028 15.1422 17.1483 14.9649 19.6654 12.8571C20.5519 12.115 20.7048 12.0773 21.0399 12.5206C21.2472 12.7949 21.9543 13.3349 22.6112 13.7201C23.5987 14.2998 24.2879 14.4204 26.595 14.4168C28.9982 14.4133 29.7643 14.265 32.1255 13.3462C35.036 12.2136 36.5228 12.1692 37.653 13.1805C37.9504 13.4468 38.0212 13.568 37.8101 13.4493C37.5989 13.3307 37.1036 13.323 36.7089 13.4316C35.5332 13.7556 35.8165 14.7695 37.4407 16.0506C39.2618 17.4869 40.077 19.4579 39.5825 21.2271C39.2977 22.2459 39.3126 22.3174 39.732 21.9377C39.9883 21.7056 40.4373 20.9225 40.73 20.1981C41.6976 17.8025 40.7242 14.1463 38.5956 12.1798C38.1075 11.7291 37.5173 11.3603 37.2836 11.3603C36.9253 11.3603 36.9327 11.2368 37.3288 10.573C37.5872 10.1401 37.7555 9.45082 37.7026 9.04172C37.6183 8.38857 37.436 8.29411 36.2071 8.26832C35.2061 8.24737 34.6164 8.04201 34.1372 7.5478C33.769 7.16771 33.0219 6.75893 32.4778 6.63965L31.4883 6.42236L31.9781 7.18996C32.2476 7.61228 32.4678 8.49045 32.4678 9.14198C32.4678 11.9287 27.9863 13.88 24.5099 12.6066C23.1277 12.1002 21.6439 10.476 21.4322 9.23773C21.1926 7.8344 22.1455 5.54355 23.3661 4.58929C24.6323 3.59958 27.4839 3.48159 28.2758 4.38619C28.7777 4.95939 28.7724 4.97357 28.1366 4.76435C26.9594 4.37684 26.3014 4.83688 26.3014 6.04743C26.3014 8.3328 25.7191 8.95661 23.365 9.19453L22.3372 9.29866L23.429 9.84574C24.6655 10.4657 26.7421 10.5595 27.9707 10.0511C28.4253 9.86283 29.2269 9.25417 29.7517 8.69806C30.5724 7.82924 30.706 7.4672 30.706 6.11416C30.706 4.81496 30.5604 4.38071 29.8715 3.6244C28.7932 2.44061 27.1383 1.96252 25.4204 2.33874C23.6498 2.72624 23.6586 2.72721 23.6586 2.15788C23.6586 1.38771 22.2996 0.0769043 21.5012 0.0769043H20.7856L21.3259 1.24071C21.8313 2.32907 21.836 2.49058 21.397 3.73917C20.6916 5.74439 20.5022 5.80629 19.8559 4.24273C19.1101 2.43804 19.111 1.97509 19.8627 0.926382L20.4711 0.0769043H19.7811C19.4017 0.0769043 18.7888 0.30902 18.4197 0.59304ZM0.832046 24.9587C-0.216256 26.6996 -0.281738 29.5179 0.679645 31.5398C1.38732 33.0286 3.17501 34.8942 3.89356 34.8942C4.32081 34.8942 4.31758 34.9571 3.86126 35.5106C3.56086 35.8749 3.39231 36.5007 3.44869 37.0419C3.53825 37.8995 3.63192 37.9588 4.94362 37.9862C5.94464 38.0072 6.53428 38.2125 7.0135 38.7067C7.38173 39.0868 8.13962 39.4946 8.69695 39.6129C9.68682 39.8235 9.69856 39.8135 9.20025 39.1939C8.39333 38.1906 8.28732 36.8069 8.9304 35.6744C10.5698 32.7881 16.5375 32.4422 18.6708 35.1099C20.2758 37.1171 19.6178 40.6036 17.3902 41.8938C15.7018 42.8722 12.5002 42.4589 12.5002 41.2629C12.5002 41.0856 12.7022 41.1246 12.9495 41.3499C13.2927 41.6627 13.5694 41.6736 14.124 41.396C14.7116 41.1024 14.8493 40.799 14.8493 39.7986C14.8493 37.9714 15.3952 37.3679 17.2402 37.1554L18.8135 36.9742L17.8738 36.4178C15.6821 35.1199 11.9206 36.0642 10.7281 38.2115C10.0004 39.5214 10.0001 40.5827 10.7266 41.8903C11.6022 43.4674 12.7956 43.9935 15.2173 43.8707C17.0672 43.7768 17.303 43.8336 17.5 44.419C17.8075 45.331 18.4133 45.8156 19.5617 46.068L20.5478 46.2843L19.9009 45.3817C19.1098 44.2772 19.1036 43.8323 19.8559 42.0118C20.5022 40.4482 20.6916 40.5101 21.397 42.5154C21.8377 43.7694 21.8324 43.9232 21.3086 45.0512L20.7509 46.2518L21.6909 46.0525C22.6402 45.8514 23.6586 44.8352 23.6586 44.0896C23.6586 43.7878 24.1813 43.7256 25.7062 43.8455C29.0901 44.1115 30.706 42.8468 30.706 39.9328C30.706 37.9446 29.3171 36.333 27.3203 36.0042C25.5012 35.7047 23.4093 35.9971 22.8314 36.6316C22.3962 37.109 22.4649 37.1509 23.6865 37.1509C25.5 37.1509 26.0339 37.6632 26.2268 39.5884C26.4103 41.4222 26.694 41.7378 27.9164 41.4702C28.7615 41.2848 28.7765 41.3009 28.2835 41.8622C27.9143 42.2826 27.3321 42.4473 26.2159 42.4473C23.4416 42.4473 21.5403 40.5066 21.4836 37.6168C21.4607 36.4394 21.6157 36.0393 22.4711 35.0703C23.6134 33.7762 24.8722 33.2868 27.0651 33.2843C29.0278 33.2817 30.3419 33.7888 31.5135 35.0006C32.5985 36.1232 32.8029 37.7718 32.0106 39.0133C31.5946 39.6658 31.5963 39.73 32.03 39.73C32.5938 39.73 33.5852 39.1977 34.3043 38.5091C34.5982 38.2277 35.4175 38.0033 36.213 37.9865C37.5182 37.9588 37.6127 37.8988 37.702 37.0419C37.7584 36.5007 37.5898 35.8749 37.2894 35.5106C36.8437 34.9697 36.8384 34.8942 37.2448 34.8942C37.8811 34.8942 39.3543 33.4832 40.0987 32.1611C41.0052 30.5501 41.3643 27.688 40.8346 26.2956C40.3759 25.0912 38.9923 23.0283 39.3238 24.0438C40.1554 26.5909 39.5625 28.5304 37.4407 30.2039C36.6437 30.8325 35.9916 31.5598 35.9916 31.8197C35.9916 32.4399 37.0786 33.0654 37.7029 32.8046C38.0685 32.6517 38.1093 32.693 37.8626 32.9657C37.6806 33.1676 37.0199 33.4606 36.3944 33.6173C35.1415 33.931 33.7699 33.646 31.4727 32.5937C29.8497 31.8506 26.4673 31.4731 24.4315 31.8084C23.5623 31.9515 22.5983 32.427 21.7696 33.1215C20.6355 34.0718 20.4238 34.1479 20.1023 33.7227C18.4194 31.4966 12.5824 30.9576 9.36557 32.731C7.77168 33.6095 5.80164 33.9683 4.57069 33.6044C3.93907 33.4177 3.34357 33.1253 3.24754 32.9548C3.15152 32.7846 3.26781 32.7269 3.50595 32.8271C4.07708 33.0679 5.15915 32.4154 5.15915 31.8303C5.15915 31.5763 4.43767 30.7832 3.55557 30.0678C1.63839 28.513 1.03436 26.9556 1.5406 24.873C1.70945 24.1789 1.80165 23.6108 1.74557 23.6108C1.68948 23.6108 1.27838 24.2172 0.832046 24.9587Z" fill="#567357"/>
</svg>
