<svg width="130" height="138" viewBox="0 0 130 138" fill="none" xmlns="http://www.w3.org/2000/svg">
<path d="M40.3453 113.749V102.075H57.3902V113.749H40.3453ZM23.6507 137.565C19.0587 137.565 15.2839 136.67 12.3264 134.88C9.36882 133.168 7.03391 130.989 5.32164 128.342C3.6872 125.774 2.51974 123.128 1.81927 120.404C1.11879 117.757 0.768555 115.539 0.768555 113.749C0.768555 110.325 1.46903 107.056 2.86998 103.943C4.34876 100.829 6.21669 98.0664 8.47377 95.6536C10.7309 93.163 13.0658 91.1395 15.4785 89.5828C15.6342 91.0616 15.5563 92.4626 15.245 93.7857C14.9337 95.1088 14.2332 96.5098 13.1436 97.9885C13.9997 98.3777 14.7002 98.9614 15.245 99.7397C15.8677 100.44 16.2957 101.218 16.5292 102.075C16.7627 102.931 16.7627 103.826 16.5292 104.76C15.4396 104.137 14.4667 103.709 13.6106 103.476C12.8323 103.164 11.8983 103.086 10.8087 103.242C8.62943 103.476 6.99499 104.721 5.90536 106.978C4.81574 109.235 4.27093 111.492 4.27093 113.749C4.27093 116.395 4.89357 118.925 6.13886 121.338C7.46197 123.828 9.48557 125.813 12.2096 127.292C15.0115 128.848 18.6306 129.627 23.067 129.627C27.0363 129.627 30.1885 128.693 32.5234 126.825C34.9361 124.957 36.6095 122.583 37.5434 119.703C38.5552 116.901 38.9444 114.138 38.7109 111.414C38.5552 109.157 38.0104 106.978 37.0765 104.877C36.1425 102.775 35.0918 100.907 33.9243 99.2727C32.8347 97.5605 31.9007 96.2373 31.1224 95.3034L37.1932 83.1618C40.1508 86.742 42.797 90.9449 45.1319 95.7703C47.4668 100.518 48.6343 106.316 48.6343 113.165C48.6343 117.524 47.6225 121.571 45.5989 125.307C43.5753 129.043 40.6956 132 36.9597 134.18C33.3017 136.437 28.8653 137.565 23.6507 137.565Z" fill="#A5DBA6"/>
<path d="M24.5936 83.8186C22.7257 83.8186 21.1301 83.157 19.807 81.8339C18.4839 80.5108 17.8223 78.9153 17.8223 77.0474C17.8223 75.1794 18.4839 73.5839 19.807 72.2608C21.1301 70.9377 22.7257 70.2761 24.5936 70.2761C26.4615 70.2761 28.0571 70.9377 29.3802 72.2608C30.7033 73.5839 31.3648 75.1794 31.3648 77.0474C31.3648 78.9153 30.7033 80.5108 29.3802 81.8339C28.0571 83.157 26.4615 83.8186 24.5936 83.8186Z" fill="#A5DBA6"/>
<path d="M52.7477 113.749V102.075H76.0969L83.6853 113.749H52.7477ZM83.5686 113.749C80.3775 113.749 77.4589 112.971 74.8127 111.414C72.1664 109.858 70.0261 107.756 68.3917 105.11C66.8351 102.386 66.0567 99.4284 66.0567 96.2373C66.0567 92.9685 66.8351 90.0109 68.3917 87.3647C70.0261 84.7184 72.1664 82.617 74.8127 81.0604C77.4589 79.5038 80.3775 78.7255 83.5686 78.7255C86.7596 78.7255 89.6783 79.5038 92.3245 81.0604C94.9708 82.617 97.0722 84.7184 98.6288 87.3647C100.185 90.0109 100.964 92.9685 100.964 96.2373C100.964 99.4284 100.185 102.386 98.6288 105.11C97.0722 107.756 94.9708 109.858 92.3245 111.414C89.6783 112.971 86.7596 113.749 83.5686 113.749ZM83.5686 102.075C85.203 102.075 86.5651 101.53 87.6547 100.44C88.8221 99.2727 89.4059 97.8718 89.4059 96.2373C89.4059 94.6029 88.8221 93.2409 87.6547 92.1512C86.5651 90.9838 85.203 90.4001 83.5686 90.4001C81.9342 90.4001 80.5332 90.9838 79.3658 92.1512C78.2761 93.2409 77.7313 94.6029 77.7313 96.2373C77.7313 97.8718 78.2761 99.2727 79.3658 100.44C80.5332 101.53 81.9342 102.075 83.5686 102.075Z" fill="#A5DBA6"/>
<path d="M57.1246 60.7466L62.9619 49.072H85.9608V60.7466H57.1246ZM41.4807 76.157C45.9171 77.3245 49.5362 77.8304 52.3381 77.6747C55.2178 77.519 57.436 76.8964 58.9926 75.8068C60.5492 74.7171 61.5999 73.3551 62.1447 71.7207C62.7673 70.0862 63.0787 68.4518 63.0787 66.8174V45.8031L74.7532 43.2347V65.6499C74.7532 69.7749 73.8582 73.1216 72.0681 75.69C70.3558 78.3363 68.0987 80.2431 65.2968 81.4106C62.4949 82.6558 59.5374 83.2396 56.4242 83.1618C53.3888 83.0839 50.509 82.4224 47.785 81.1771C45.1387 80.0096 43.0373 78.3363 41.4807 76.157ZM74.7532 43.2347L57.3581 25.7229C58.3699 25.7229 59.693 25.7229 61.3275 25.7229C62.9619 25.7229 64.6353 25.6061 66.3475 25.3727C68.1376 25.0613 69.7721 24.5165 71.2509 23.7382C72.8075 22.9599 73.9749 21.8314 74.7532 20.3526V43.2347ZM57.3581 60.7466C54.1671 60.7466 51.2484 59.9683 48.6022 58.4117C45.956 56.8551 43.8156 54.7536 42.1812 52.1074C40.6246 49.3833 39.8463 46.4258 39.8463 43.2347C39.8463 39.9659 40.6246 37.0083 42.1812 34.3621C43.8156 31.7158 45.956 29.6144 48.6022 28.0578C51.2484 26.5012 54.1671 25.7229 57.3581 25.7229C60.5492 25.7229 63.4678 26.5012 66.114 28.0578C68.7603 29.6144 70.8617 31.7158 72.4183 34.3621C73.9749 37.0083 74.7532 39.9659 74.7532 43.2347C74.7532 46.4258 73.9749 49.3833 72.4183 52.1074C70.8617 54.7536 68.7603 56.8551 66.114 58.4117C63.4678 59.9683 60.5492 60.7466 57.3581 60.7466ZM57.3581 49.072C58.9926 49.072 60.3546 48.5272 61.4442 47.4376C62.6117 46.2701 63.1954 44.8692 63.1954 43.2347C63.1954 41.6003 62.6117 40.2383 61.4442 39.1486C60.3546 37.9812 58.9926 37.3975 57.3581 37.3975C55.7237 37.3975 54.3227 37.9812 53.1553 39.1486C52.0657 40.2383 51.5208 41.6003 51.5208 43.2347C51.5208 44.8692 52.0657 46.2701 53.1553 47.4376C54.3227 48.5272 55.7237 49.072 57.3581 49.072Z" fill="#A5DBA6"/>
<path d="M39.1458 19.3019V15.4493C39.1458 13.9705 39.1847 12.803 39.2626 11.9469C39.3404 11.0129 39.535 9.96222 39.8463 8.79477C40.4689 6.45986 41.5196 4.55301 42.9984 3.07423C44.4772 1.51762 46.7343 0.739319 49.7697 0.739319C50.8593 0.739319 52.1435 1.08956 53.6223 1.79003C55.1789 2.41267 56.3463 3.61905 57.1246 5.40914C56.6577 5.17565 55.6459 4.86433 54.0893 4.47518C52.5326 4.08603 51.2095 4.04711 50.1199 4.35843C48.8746 4.66976 47.9795 5.25348 47.4347 6.10962C46.8899 6.88792 46.5786 7.66623 46.5008 8.44453C46.4229 9.14501 46.384 9.6509 46.384 9.96222C46.384 11.5188 46.7732 12.6085 47.5515 13.2311C48.4076 13.8537 49.3805 14.2429 50.4701 14.3986C51.6376 14.4764 52.6883 14.5153 53.6223 14.5153H56.6576L56.7744 19.3019H39.1458ZM30.6234 20.3526L34.1257 14.5153H62.1447L58.6423 20.3526H30.6234Z" fill="#A5DBA6"/>
<path d="M81.3366 60.7466V49.072H104.686L112.274 60.7466H81.3366ZM112.157 60.7466C108.966 60.7466 106.048 59.9683 103.402 58.4117C100.755 56.8551 98.6149 54.7536 96.9805 52.1074C95.4239 49.3833 94.6456 46.4258 94.6456 43.2347C94.6456 39.9659 95.4239 37.0083 96.9805 34.3621C98.6149 31.7158 100.755 29.6144 103.402 28.0578C106.048 26.5012 108.966 25.7229 112.157 25.7229C115.349 25.7229 118.267 26.5012 120.913 28.0578C123.56 29.6144 125.661 31.7158 127.218 34.3621C128.774 37.0083 129.553 39.9659 129.553 43.2347C129.553 46.4258 128.774 49.3833 127.218 52.1074C125.661 54.7536 123.56 56.8551 120.913 58.4117C118.267 59.9683 115.349 60.7466 112.157 60.7466ZM112.157 49.072C113.792 49.072 115.154 48.5272 116.244 47.4376C117.411 46.2701 117.995 44.8692 117.995 43.2347C117.995 41.6003 117.411 40.2383 116.244 39.1486C115.154 37.9812 113.792 37.3975 112.157 37.3975C110.523 37.3975 109.122 37.9812 107.955 39.1486C106.865 40.2383 106.32 41.6003 106.32 43.2347C106.32 44.8692 106.865 46.2701 107.955 47.4376C109.122 48.5272 110.523 49.072 112.157 49.072Z" fill="#A5DBA6"/>
</svg>
